<svg width="34" height="35" viewBox="0 0 34 35" fill="none" xmlns="http://www.w3.org/2000/svg">
<path d="M20.1283 17.1639C19.9607 17.1639 19.805 17.1178 19.6668 17.0436V17.0456C19.6668 17.3093 19.5643 17.557 19.3783 17.7424C19.1924 17.9284 18.9449 18.0309 18.6815 18.0309C18.5115 18.0309 18.3539 17.9837 18.2141 17.9076C18.2 18.1488 18.1036 18.3743 17.9316 18.5465C17.7456 18.7325 17.4982 18.835 17.2346 18.835C16.7109 18.835 16.2857 18.4233 16.2551 17.9074C16.093 17.995 15.9099 18.0409 15.7209 18.0288C15.2058 17.995 14.8024 17.5499 14.8024 17.0153V12.5836L14.2978 13.4579C14.1056 13.7923 13.7458 13.9999 13.3584 13.9999C13.1697 13.9999 12.9832 13.9503 12.8181 13.8557C12.6124 13.7365 12.4653 13.5451 12.4042 13.3162C12.3427 13.0871 12.3745 12.8475 12.4934 12.6421C12.4935 12.6421 14.1444 9.78325 14.2452 9.60764C14.2571 9.58123 14.2912 9.50465 14.3203 9.43938C14.348 9.37706 14.3718 9.31311 14.3946 9.24882C14.8924 7.84326 16.1252 6.97016 17.6119 6.97016C19.5426 6.97016 21.1133 8.67337 21.1133 10.7669L21.1135 16.1784C21.1135 16.4418 21.0112 16.6893 20.8254 16.8754C20.6394 17.0614 20.3919 17.1639 20.1282 17.1639L20.1283 17.1639ZM17.612 7.4937C16.3344 7.4937 15.3162 8.21529 14.888 9.42391C14.8606 9.50066 14.8321 9.57741 14.7988 9.65219C14.7022 9.86882 14.7022 9.86882 14.675 9.89998L14.6714 9.89686C14.5366 10.1512 14.1361 10.8447 12.9467 12.9042C12.8978 12.9886 12.8849 13.0867 12.9098 13.1805C12.935 13.2743 12.9956 13.3533 13.0794 13.4017C13.3395 13.5511 13.6957 13.4547 13.8439 13.1964L14.8375 11.4761C14.8969 11.3736 15.0169 11.3233 15.1321 11.3544C15.2465 11.3851 15.3261 11.4889 15.3261 11.6073V17.0154C15.3261 17.2706 15.5186 17.4908 15.7552 17.5064C15.8917 17.5136 16.0189 17.4679 16.1145 17.3724C16.2015 17.2855 16.2493 17.1697 16.2493 17.0459V13.5089C16.2493 13.3643 16.3666 13.247 16.5112 13.247C16.6559 13.247 16.7731 13.3641 16.7731 13.5089L16.773 17.8499C16.773 18.1044 16.9801 18.3115 17.2346 18.3115C17.3583 18.3115 17.4744 18.2636 17.5615 18.1767C17.6484 18.0896 17.6963 17.9735 17.6963 17.8499V13.5089C17.6963 13.3643 17.8133 13.247 17.9581 13.247C18.1028 13.247 18.22 13.3641 18.22 13.5089L18.2199 17.0052V17.0459C18.2199 17.3003 18.427 17.5074 18.6817 17.5074C18.8052 17.5074 18.9209 17.4593 19.0085 17.3721C19.0954 17.2853 19.1433 17.1695 19.1433 17.0457V13.5087C19.1433 13.3641 19.2604 13.2468 19.4052 13.2468C19.5499 13.2468 19.6671 13.3639 19.6671 13.5087L19.6668 16.1785C19.6668 16.4332 19.8739 16.6403 20.1283 16.6403C20.2521 16.6403 20.3678 16.5923 20.4548 16.5056C20.542 16.4183 20.5897 16.3022 20.5897 16.1785L20.5899 10.7671C20.5899 8.96233 19.254 7.49375 17.6119 7.49375L17.612 7.4937Z" fill="#103E13"/>
<path d="M9.83859 20.925L13.6389 18.6452C14.0971 18.37 14.6867 18.4869 14.9806 18.9115C15.0878 19.0662 15.1426 19.2464 15.1511 19.4299C15.2928 19.3559 15.4469 19.3158 15.6039 19.3158C15.6842 19.3158 15.7649 19.3258 15.8446 19.3456C16.1 19.4094 16.3151 19.569 16.4504 19.7946C16.5859 20.0206 16.6254 20.2854 16.5616 20.5405C16.5027 20.7764 16.3592 20.9751 16.1597 21.1113C16.2992 21.1937 16.4196 21.306 16.5052 21.449C16.6407 21.675 16.6802 21.9397 16.6165 22.195C16.5528 22.45 16.3932 22.6652 16.1672 22.8008L16.1659 22.8016C16.303 22.8838 16.4212 22.995 16.5059 23.1359C16.6415 23.3618 16.681 23.6267 16.6172 23.882C16.5533 24.1372 16.3937 24.3523 16.168 24.4878L11.5278 27.2716C10.6617 27.791 9.66053 27.9702 8.70905 27.7759C7.74904 27.5797 6.95398 27.0279 6.47056 26.222C5.70552 24.947 5.82017 23.4406 6.76919 22.2908C6.81265 22.2383 6.85545 22.1849 6.89432 22.1294C6.93548 22.0709 6.98353 22.002 6.99993 21.9784C7.09816 21.8029 8.70104 18.915 8.70088 18.9153C8.86274 18.6233 9.16612 18.4579 9.47901 18.4581C9.62497 18.4581 9.77305 18.494 9.90967 18.5698C10.0746 18.6619 10.2132 18.7963 10.3101 18.9581C10.5094 19.2902 10.5164 19.7058 10.3288 20.0421L9.83859 20.925ZM9.86138 19.2273C9.81055 19.1426 9.74068 19.075 9.65524 19.0271C9.47862 18.9294 9.25625 18.993 9.15901 19.169C8.01206 21.2353 7.62109 21.9394 7.4702 22.19L7.47365 22.1909C7.46102 22.2328 7.46102 22.2328 7.32294 22.4301C7.27604 22.4969 7.22504 22.561 7.17305 22.6241C6.357 23.6128 6.26225 24.8571 6.91935 25.9527C7.32638 26.6313 7.99909 27.0965 8.81362 27.2628C9.63702 27.4302 10.5049 27.2745 11.2581 26.8225L15.8988 24.0386C16.0048 23.9751 16.0795 23.8743 16.1094 23.7547C16.1392 23.6353 16.1207 23.5112 16.0571 23.4053C15.9262 23.1871 15.642 23.1155 15.4239 23.2468L13.1346 24.6203C13.0106 24.6947 12.8495 24.6547 12.7753 24.5306C12.7008 24.4066 12.741 24.2457 12.865 24.1713L15.1545 22.7978L15.898 22.3518C16.0039 22.2881 16.0789 22.1873 16.1087 22.0681C16.1386 21.9485 16.12 21.8242 16.0564 21.7184C15.9254 21.5002 15.6412 21.4291 15.4232 21.56L12.3902 23.3795C12.2659 23.4541 12.1053 23.4138 12.0309 23.2898C11.9564 23.1658 11.9968 23.005 12.1206 22.9305L15.8431 20.6974C15.949 20.6338 16.0238 20.5331 16.0536 20.4136C16.0835 20.2942 16.0649 20.17 16.0015 20.0641C15.938 19.9583 15.8372 19.8835 15.7176 19.8537C15.5974 19.8238 15.4738 19.8424 15.3681 19.9057L14.679 20.3191C14.6789 20.3191 14.6789 20.3193 14.6787 20.3193H14.6786L11.6457 22.1388C11.5214 22.2136 11.3607 22.1732 11.2864 22.0491C11.2119 21.9251 11.2523 21.7642 11.3761 21.6898L14.4091 19.8703C14.5151 19.8066 14.59 19.7058 14.6198 19.5866C14.6526 19.4557 14.6277 19.3219 14.55 19.2097C14.4152 19.0147 14.1269 18.9629 13.9083 19.0942L9.27095 21.8762C9.16944 21.9369 9.0394 21.9222 8.95428 21.84C8.86901 21.7577 8.84982 21.6283 8.90722 21.5248L9.8715 19.7875C9.96826 19.6138 9.96448 19.3993 9.86133 19.2274L9.86138 19.2273Z" fill="#103E13"/>
<path d="M27.9984 26.2219C27.5151 27.0279 26.7203 27.5796 25.7601 27.7758C24.8084 27.9698 23.8076 27.7909 22.9414 27.2715L18.3007 24.4876C18.0748 24.3521 17.9151 24.137 17.8512 23.8814C17.7877 23.6264 17.8274 23.3616 17.9627 23.1359C18.0471 22.9949 18.1655 22.8837 18.3028 22.8015L18.3015 22.8007C18.0757 22.6653 17.9159 22.4501 17.8523 22.1949C17.7884 21.9397 17.828 21.6747 17.9635 21.4488C18.0507 21.3036 18.1703 21.1901 18.3067 21.1096C18.1086 20.9734 17.966 20.7754 17.9073 20.5406C17.8433 20.2852 17.883 20.0204 18.0184 19.7947C18.1537 19.5689 18.3691 19.4093 18.6242 19.3455C18.7039 19.3255 18.7848 19.3157 18.8648 19.3157C19.0219 19.3159 19.1761 19.3557 19.3178 19.4298C19.3265 19.2463 19.3811 19.0661 19.4883 18.9114C19.7824 18.4872 20.3714 18.3698 20.8303 18.6451L24.6305 20.9246L24.1406 20.0423C23.9527 19.7055 23.9596 19.2899 24.1589 18.9577C24.2559 18.796 24.3947 18.6617 24.5605 18.5687C24.6967 18.4932 24.8443 18.4575 24.9899 18.4575C25.3027 18.4577 25.6064 18.6226 25.7681 18.9147C26.3316 19.93 27.3949 21.8448 27.4697 21.9785C27.4856 22.0016 27.5336 22.0705 27.5748 22.129C27.614 22.1846 27.6563 22.2377 27.7001 22.2905C28.6489 23.4408 28.7634 24.947 27.9984 26.2219L27.9984 26.2219ZM27.296 22.6243C27.2439 22.5611 27.1927 22.4967 27.1462 22.4303C27.0045 22.2292 27.0009 22.224 26.9902 22.1713C26.8246 21.8973 26.4205 21.1698 25.3098 19.1688C25.2124 18.9931 24.991 18.929 24.8147 19.0264C24.7279 19.075 24.6582 19.1427 24.6074 19.2275C24.5044 19.3992 24.5005 19.6137 24.5977 19.7879L25.5617 21.5247C25.6192 21.6283 25.6 21.7576 25.5149 21.8399C25.43 21.9224 25.3001 21.9368 25.1981 21.8761L20.5608 19.0942C20.3422 18.9631 20.054 19.0145 19.9189 19.2096C19.8412 19.3218 19.8164 19.4556 19.8489 19.5863C19.8787 19.7057 19.9537 19.8064 20.0598 19.87C20.0601 19.8702 20.0603 19.8705 20.0606 19.8707L23.0927 21.6897C23.2166 21.7641 23.2568 21.9248 23.1824 22.049C23.1079 22.1728 22.9474 22.2133 22.823 22.1387L19.1006 19.9056C18.995 19.8423 18.8707 19.8236 18.7513 19.8536C18.6316 19.8835 18.5309 19.9582 18.4674 20.0643C18.4038 20.1701 18.3854 20.2943 18.4149 20.4136C18.4448 20.533 18.5197 20.6339 18.6257 20.6975L19.35 21.1319L22.348 22.9306C22.4719 23.0051 22.5121 23.1658 22.4377 23.2899C22.3632 23.4137 22.2027 23.4541 22.0784 23.3796L19.0457 21.5601C18.8275 21.4289 18.5435 21.5001 18.4123 21.7186C18.3487 21.8245 18.3303 21.9486 18.3598 22.068C18.3897 22.1874 18.4646 22.2881 18.5707 22.3519L19.3143 22.7979L21.6034 24.1714C21.7274 24.2458 21.7676 24.4066 21.6931 24.5307C21.6187 24.6545 21.4581 24.6952 21.3338 24.6204L19.0447 23.247C18.9391 23.1837 18.8152 23.165 18.6952 23.195C18.5758 23.2248 18.4748 23.2996 18.4113 23.4054C18.3479 23.5113 18.3293 23.6356 18.3589 23.7548C18.3887 23.8742 18.4636 23.9749 18.5697 24.0387L23.2104 26.8226C23.9635 27.2744 24.832 27.4309 25.6549 27.2629C26.4693 27.0966 27.142 26.6314 27.549 25.9528C28.2068 24.857 28.1122 23.6126 27.2963 22.6243L27.296 22.6243Z" fill="#103E13"/>
</svg>
