<?xml version="1.0" encoding="utf-8"?>
<!-- Generator: Adobe Illustrator 27.0.1, SVG Export Plug-In . SVG Version: 6.00 Build 0)  -->
<svg version="1.1" id="Layer_1" xmlns="http://www.w3.org/2000/svg" xmlns:xlink="http://www.w3.org/1999/xlink" x="0px" y="0px"
	 viewBox="0 0 201 36.3" style="enable-background:new 0 0 201 36.3;" xml:space="preserve">
<style type="text/css">
	.st0{fill:#17181A;}
</style>
<g>
	<g transform="translate(143.622057, 196.572309)">
		<g>
			<path class="st0" d="M-83.4-165.2v-5h-3.2c-1.3,0-2.3-0.7-2.3-2.7v-7.6h5.5v-5.2h-5.5v-5.9l-6.1,0v5.9h-3.9v5.2h3.9v7.3
				c0,7.1,4.1,7.9,7.1,7.9H-83.4z"/>
		</g>
	</g>
</g>
<g>
	<g transform="translate(156.175725, 196.572309)">
		<g>
			<path class="st0" d="M-83-164.6c6.5,0,10.9-4.8,10.9-10.8c0-6-4.5-10.8-10.9-10.8c-6.4,0-10.8,4.9-10.8,10.8
				C-93.8-169.4-89.3-164.6-83-164.6z M-82.9-170.1c-2.8,0-4.9-2.1-4.9-5.2c0-3.1,2-5.3,4.9-5.3c2.9,0,4.9,2.2,4.9,5.3
				C-78-172.3-80.1-170.1-82.9-170.1z"/>
		</g>
	</g>
</g>
<g>
	<g transform="translate(174.231764, 196.572309)">
		<g>
			<path class="st0" d="M-61.5-186.2c-2.7,0-5,1.2-6.8,4.1c-1.2-2.6-3.3-4.1-6.5-4.1c-2.7,0-5,1.3-6,3.1l-0.1-2.5h-5.7v20.4h6v-10.1
				c0-3.2,1.9-5.4,4-5.4c2,0,3.4,1.3,3.4,4.7v10.8h6v-10.1c0-3.2,1.9-5.4,4-5.4c2,0,3.4,1.3,3.4,4.7v10.8h6v-10.9
				C-53.9-182.4-56.3-186.2-61.5-186.2z"/>
		</g>
	</g>
</g>
<g>
	<g transform="translate(202.18617, 196.572309)">
		<g>
			<path class="st0" d="M-67.6-164.6c6.5,0,10.9-4.8,10.9-10.8c0-6-4.5-10.8-10.9-10.8c-6.4,0-10.8,4.9-10.8,10.8
				C-78.4-169.4-74-164.6-67.6-164.6z M-67.6-170.1c-2.8,0-4.9-2.1-4.9-5.2c0-3.1,2-5.3,4.9-5.3c2.9,0,4.9,2.2,4.9,5.3
				C-62.7-172.3-64.7-170.1-67.6-170.1z"/>
		</g>
	</g>
</g>
<g>
	<g transform="translate(220.242209, 196.572309)">
		<g>
			<path class="st0" d="M-57.9-165.2v-5h-3.2c-1.3,0-2.3-0.7-2.3-2.7v-7.6h5.5v-5.2h-5.5v-5.9l-6.1,0v5.9h-3.9v5.2h3.9v7.3
				c0,7.1,4.1,7.9,7.1,7.9H-57.9z"/>
		</g>
	</g>
</g>
<g>
	<g transform="translate(232.795877, 196.572309)">
		<g>
			<path class="st0" d="M-64.1-188c2.4,0,3.6-1.4,3.6-3.3c0-1.8-1.3-3.3-3.6-3.3c-2.3,0-3.6,1.5-3.6,3.3
				C-67.6-189.4-66.3-188-64.1-188z M-61-165.2v-20.4h-6.1v20.4H-61z"/>
		</g>
	</g>
</g>
<g>
	<g transform="translate(240.865038, 196.572309)">
		<g>
			<path class="st0" d="M-53-165.2l8-20.4h-6.5l-3.8,10.4l-0.5,2.4l-0.6-2.4l-3.8-10.4h-6.4l8,20.4H-53z"/>
		</g>
	</g>
</g>
<g>
	<g transform="translate(139.659336, 176.679344)">
		<g>
			<path class="st0" d="M-106.7-147.9l-0.3-15.8c-0.1-5.3-3.4-8.4-8.6-8.3c-2,0-4.9,0.7-6.6,1.8l0.9,3c1.4-0.8,3.7-1.3,5.2-1.3
				c3.2-0.1,5.3,2.1,5.4,5.5l0.3,15.2l-10.3,0.2l0.1,3.5l18.9-0.4l-0.1-3.5L-106.7-147.9z"/>
		</g>
	</g>
</g>
<g>
	<g transform="translate(116.413917, 197.860958)">
		<g>
			<path class="st0" d="M-101.5-188.2v15.6c0,5.3,3.2,8.3,8.3,8.3c2,0,4.8-0.6,6.6-1.6l-0.8-2.9c-1.4,0.7-3.6,1.2-5.2,1.2
				c-3.2,0-5.2-2.1-5.2-5.6v-15h10.2v-3.4h-18.6v3.4H-101.5z"/>
		</g>
	</g>
</g>
</svg>
