<svg width="308" height="303" viewBox="0 0 308 303" fill="none" xmlns="http://www.w3.org/2000/svg">
<path d="M262.213 302.466C262.213 302.567 212.257 302.653 150.655 302.653C89.0519 302.653 39.0747 302.567 39.0747 302.466C39.0747 302.366 89.0231 302.279 150.655 302.279C212.286 302.279 262.213 302.373 262.213 302.466Z" fill="#263238"/>
<path d="M213.538 214.396C202.423 206.634 199.905 192.224 200.344 179.268C200.416 177.11 200.179 174.822 201.207 172.93C202.236 171.038 204.639 169.736 206.574 170.642C208.178 171.398 208.876 173.268 209.775 174.815C210.975 176.875 212.734 178.553 214.847 179.656C216.221 180.376 217.926 180.807 219.286 180.059C221.156 179.03 221.372 176.462 221.358 174.304C221.358 170.29 221.334 166.28 221.286 162.276C221.157 160.125 221.375 157.968 221.933 155.887C222.602 153.844 224.092 151.952 226.128 151.376C228.163 150.801 230.703 151.988 231.163 154.089C231.243 154.978 231.264 155.872 231.228 156.765C231.286 157.664 231.703 158.65 232.545 158.923C233.386 159.196 234.264 158.571 234.912 157.937C237.127 155.779 238.638 152.966 240.041 150.189C241.444 147.413 242.818 144.557 244.832 142.19C246.846 139.823 249.631 137.945 252.746 137.765C255.861 137.585 259.105 139.499 259.882 142.521C260.659 145.542 258.897 148.628 257.004 151.082C254.149 154.723 250.784 157.933 247.012 160.614C246.276 161.016 245.688 161.644 245.336 162.405C244.868 163.844 246.228 165.283 247.645 165.736C249.249 166.268 250.99 166.103 252.681 166.304C254.371 166.506 256.17 167.239 256.81 168.822C257.688 171.023 255.846 173.326 254.041 174.836C250.415 177.858 246.298 180.235 241.868 181.865C240.285 182.44 238.624 182.951 237.343 184.059C236.063 185.167 235.3 187.102 236.07 188.62C236.84 190.138 238.818 190.62 240.48 190.311C242.142 190.001 243.616 189.109 245.199 188.512C248.156 187.397 251.969 187.599 253.832 190.153C254.409 191.032 254.775 192.034 254.899 193.079C255.024 194.123 254.905 195.183 254.551 196.174C253.831 198.146 252.723 199.954 251.292 201.49C246.581 207.12 240.458 211.397 233.552 213.886C226.696 216.26 220.344 216.907 213.531 214.411" fill="#4CAF4F"/>
<path d="M256.717 139.542C256.717 139.542 256.652 139.614 256.508 139.744L255.868 140.312C255.307 140.816 254.479 141.549 253.436 142.521C250.479 145.267 247.732 148.232 245.221 151.391C243.616 153.384 241.955 155.643 240.185 158.096C238.415 160.549 236.588 163.196 234.775 166.009C232.842 168.975 231.072 172.045 229.473 175.203C228.638 176.851 227.905 178.57 227.149 180.325L224.919 185.685C221.979 192.436 219.419 199.346 217.25 206.382C215.503 212.139 214.299 218.048 213.653 224.029C213.235 228.066 213.167 232.132 213.452 236.18C213.567 237.619 213.675 238.72 213.775 239.468C213.819 239.827 213.847 240.115 213.876 240.324V240.619C213.845 240.525 213.823 240.429 213.811 240.331C213.775 240.122 213.732 239.842 213.675 239.482C213.545 238.763 213.408 237.626 213.279 236.187C212.932 232.131 212.956 228.052 213.351 224.001C213.957 217.993 215.135 212.058 216.869 206.274C219.02 199.218 221.573 192.291 224.516 185.527L226.804 180.189C227.559 178.441 228.3 176.707 229.142 175.052C230.752 171.884 232.537 168.807 234.487 165.837C236.329 162.959 238.185 160.355 239.933 157.923C241.681 155.491 243.372 153.218 244.969 151.233C247.506 148.082 250.289 145.137 253.292 142.427C254.357 141.47 255.206 140.751 255.781 140.269L256.451 139.729C256.533 139.658 256.622 139.595 256.717 139.542Z" fill="#263238"/>
<path d="M229.235 175.038C229.134 174.741 229.064 174.435 229.027 174.124C228.912 173.527 228.782 172.685 228.631 171.592C228.322 169.434 228.005 166.477 227.667 163.203C227.329 159.93 226.948 156.966 226.631 154.83C226.466 153.765 226.322 152.909 226.221 152.312C226.143 152.006 226.101 151.692 226.099 151.376C226.223 151.665 226.312 151.967 226.365 152.276C226.523 152.866 226.703 153.715 226.905 154.786C227.315 156.945 227.717 159.88 228.056 163.16C228.394 166.441 228.681 169.318 228.904 171.556C229.012 172.563 229.106 173.419 229.178 174.103C229.234 174.411 229.253 174.725 229.235 175.038Z" fill="#263238"/>
<path d="M256.918 169.872C256.568 169.949 256.212 169.992 255.853 170.002C255.134 170.067 254.112 170.153 252.846 170.297C250.314 170.57 246.832 171.074 243.012 171.793C239.192 172.513 235.76 173.326 233.293 173.951C232.063 174.268 231.07 174.556 230.415 174.75C230.066 174.874 229.704 174.961 229.336 175.009C229.669 174.842 230.015 174.705 230.372 174.599C231.048 174.362 232.027 174.031 233.25 173.678C235.703 172.959 239.134 172.103 242.969 171.369C246.217 170.748 249.494 170.292 252.789 170.002C254.062 169.894 255.091 169.851 255.81 169.836C256.18 169.811 256.551 169.823 256.918 169.872Z" fill="#263238"/>
<path d="M217.221 205.771C217.145 205.667 217.082 205.553 217.034 205.433L216.559 204.433C216.149 203.562 215.595 202.275 214.934 200.699C213.596 197.534 211.891 193.102 210.078 188.181C208.265 183.261 206.596 178.829 205.33 175.628C204.711 174.074 204.2 172.8 203.819 171.851L203.416 170.822C203.36 170.703 203.321 170.578 203.301 170.448C203.378 170.552 203.44 170.666 203.488 170.786L203.963 171.786C204.366 172.657 204.927 173.944 205.589 175.52C206.927 178.685 208.632 183.117 210.445 188.037C212.257 192.958 213.926 197.39 215.193 200.591C215.811 202.145 216.322 203.418 216.696 204.368C216.862 204.778 216.998 205.087 217.106 205.397C217.162 205.515 217.201 205.641 217.221 205.771Z" fill="#263238"/>
<path d="M253.969 193.922C253.853 193.988 253.73 194.039 253.602 194.073L252.537 194.433L248.602 195.706C245.278 196.785 240.688 198.325 235.653 200.023C230.617 201.72 226.005 203.231 222.66 204.238C220.991 204.749 219.631 205.138 218.689 205.397L217.603 205.677C217.476 205.717 217.346 205.744 217.214 205.756C217.329 205.69 217.453 205.639 217.581 205.605L218.646 205.246L222.581 203.972C225.905 202.893 230.494 201.354 235.53 199.656C240.566 197.958 245.17 196.447 248.516 195.44C250.192 194.929 251.544 194.541 252.494 194.282L253.58 194.001C253.706 193.961 253.837 193.935 253.969 193.922Z" fill="#263238"/>
<path d="M238.976 19.416L235.271 20.7398L233.681 15.8982C230.761 6.97032 221.451 2.22943 212.898 5.24375C204.344 8.25806 199.79 18.0492 202.711 26.977L204.301 31.8186L200.581 33.1495C199.163 33.6996 198.012 34.7751 197.366 36.1524C196.72 37.5297 196.63 39.1029 197.114 40.545L207.423 72.0478C207.637 72.7617 207.992 73.4253 208.468 73.9991C208.943 74.573 209.529 75.0454 210.191 75.3883C210.853 75.7313 211.577 75.9377 212.32 75.9953C213.063 76.053 213.81 75.9607 214.516 75.724L252.911 61.9905C254.348 61.4414 255.516 60.3564 256.169 58.9637C256.823 57.571 256.911 55.9792 256.415 54.5231L246.098 23.0203C245.879 22.3084 245.518 21.648 245.038 21.0786C244.557 20.5092 243.967 20.0423 243.303 19.7059C242.638 19.3696 241.912 19.1705 241.169 19.1207C240.426 19.0709 239.68 19.1714 238.976 19.416ZM209.711 24.4519C208.923 22.1305 209.065 19.5944 210.105 17.375C211.146 15.1555 213.005 13.4249 215.293 12.5457C216.423 12.1591 217.619 12.0041 218.811 12.0899C220.002 12.1757 221.163 12.5005 222.226 13.045C223.289 13.5896 224.231 14.3426 224.997 15.2592C225.762 16.1758 226.335 17.2372 226.682 18.3801L228.264 23.2217L211.293 29.2935L209.711 24.4519ZM231.293 52.408L233.926 60.451C233.974 60.6122 233.959 60.7859 233.882 60.936C233.806 61.086 233.675 61.2009 233.516 61.2567L229.825 62.5732C229.678 62.6139 229.522 62.5962 229.387 62.5238C229.253 62.4514 229.152 62.3299 229.106 62.1847L226.451 54.1778C224.988 54.098 223.583 53.573 222.426 52.673C221.269 51.773 220.414 50.541 219.977 49.1419C219.351 47.2923 219.465 45.2723 220.295 43.5049C221.125 41.7375 222.607 40.3598 224.43 39.6601C225.33 39.3526 226.283 39.2294 227.231 39.298C228.18 39.3665 229.105 39.6253 229.952 40.059C230.798 40.4926 231.549 41.0923 232.159 41.8222C232.769 42.5521 233.225 43.3974 233.501 44.3075C233.964 45.7287 234.003 47.2541 233.612 48.6967C233.221 50.1394 232.417 51.4366 231.3 52.4296L231.293 52.408Z" fill="#4CAF4F"/>
<path d="M235.106 20.6534C235.106 20.7542 228.235 23.3368 219.689 26.4087C211.142 29.4806 204.171 31.9481 204.135 31.8762C204.099 31.8042 211.006 29.2 219.559 26.1209C228.113 23.0419 235.07 20.5599 235.106 20.6534Z" fill="#263238"/>
<path d="M243.264 21.9771C243.296 22.0395 243.322 22.1045 243.343 22.1713C243.401 22.3152 243.465 22.5022 243.552 22.7324C243.739 23.2576 243.998 23.9842 244.321 24.8906L247.084 32.9336C248.235 36.3436 249.609 40.3867 251.134 44.8757C251.854 47.1275 252.702 49.4728 253.494 51.9403C253.917 53.2119 254.1 54.5513 254.033 55.8899C253.972 56.586 253.774 57.2633 253.451 57.8826C253.105 58.4999 252.643 59.0446 252.091 59.4869C250.979 60.2982 249.746 60.9272 248.436 61.3502L244.731 62.6811L237.717 65.1918L225.84 69.4219L217.818 72.242L215.66 72.9614L215.085 73.1484C215.023 73.1758 214.958 73.1928 214.89 73.1988C214.89 73.1988 214.948 73.1988 215.07 73.1124L215.631 72.8894L217.79 72.0765L225.768 69.1413L237.624 64.8249L244.624 62.2926L248.328 60.9545C249.601 60.5487 250.799 59.9389 251.875 59.1488C252.389 58.7384 252.819 58.2328 253.141 57.6596C253.446 57.0868 253.63 56.4575 253.681 55.8107C253.747 54.521 253.571 53.2302 253.163 52.0051C252.386 49.5591 251.566 47.1922 250.825 44.9405C249.328 40.4442 247.947 36.3868 246.854 32.9768C245.76 29.5668 244.839 26.8259 244.206 24.8978C243.904 23.9554 243.674 23.2216 243.487 22.6893L243.314 22.1137C243.292 22.0701 243.276 22.0243 243.264 21.9771Z" fill="#263238"/>
<path d="M223.005 12.0566C223.005 12.0566 222.624 11.8695 221.919 11.5818C220.914 11.1957 219.851 10.9816 218.775 10.9487C217.18 10.894 215.593 11.1938 214.128 11.8264C212.346 12.6141 210.823 13.8883 209.732 15.5026C208.635 17.1122 208.046 19.0145 208.042 20.9628C208.057 22.5597 208.299 24.1463 208.761 25.675C209.135 26.9843 209.524 28.0274 209.783 28.754C209.936 29.1231 210.061 29.503 210.157 29.8907C209.952 29.5456 209.781 29.1819 209.646 28.8044C209.351 28.085 208.927 27.0634 208.509 25.7469C207.997 24.2022 207.718 22.5898 207.682 20.9628C207.663 18.9409 208.266 16.9619 209.409 15.2939C210.537 13.6207 212.123 12.3071 213.977 11.5098C215.488 10.8738 217.124 10.5932 218.761 10.6897C219.86 10.7458 220.94 11.0017 221.948 11.4451C222.217 11.5694 222.477 11.7137 222.725 11.8767C222.827 11.9217 222.922 11.9824 223.005 12.0566Z" fill="#263238"/>
<path d="M223.336 40.2068C223.451 40.1373 223.571 40.0771 223.696 40.027C224.056 39.8645 224.429 39.7321 224.811 39.6313C225.417 39.4523 226.043 39.3461 226.674 39.3148C227.533 39.2686 228.393 39.3984 229.2 39.6961C231.041 40.3435 232.732 42.2212 233.566 44.7319C233.966 46.0793 233.966 47.5139 233.566 48.8613C233.123 50.3237 232.327 51.655 231.25 52.7389L231.293 52.5447C232.25 55.1705 233.293 58.0193 234.372 60.9905L234.437 61.1703L234.257 61.2351L232.609 61.7818L229.012 62.9832L228.833 63.0408L228.775 62.8609C227.789 59.8826 226.71 57.1057 225.897 54.3791L226.056 54.5014C224.649 54.3846 223.308 53.8567 222.2 52.9835C221.197 52.2109 220.374 51.2289 219.79 50.1059C219.262 49.1099 219 47.9952 219.027 46.8685C219.06 45.7171 219.348 44.5872 219.869 43.5599C220.39 42.5326 221.132 41.6333 222.041 40.9262C222.416 40.6224 222.836 40.3796 223.286 40.2068C222.88 40.4479 222.486 40.7097 222.106 40.991C221.107 41.8362 220.342 42.9236 219.883 44.1492C219.49 45.0734 219.305 46.0732 219.344 47.077C219.383 48.0807 219.643 49.0635 220.106 49.9548C220.681 51.0352 221.484 51.9778 222.459 52.7173C223.516 53.5473 224.795 54.0477 226.135 54.1561H226.257L226.293 54.264C227.084 56.9402 228.171 59.7387 229.171 62.7314L228.933 62.6163L232.53 61.4149L234.171 60.861L234.056 61.1056C232.984 58.1344 231.948 55.2784 230.998 52.6526V52.5447L231.084 52.4583C232.13 51.4194 232.91 50.1436 233.358 48.739C233.739 47.4501 233.739 46.0783 233.358 44.7894C232.574 42.3722 230.955 40.5378 229.2 39.8903C228.423 39.5907 227.593 39.4512 226.761 39.4802C226.139 39.4945 225.521 39.5789 224.919 39.732C223.847 39.9982 223.344 40.2428 223.336 40.2068Z" fill="#263238"/>
<path d="M201.099 247.928L129.238 247.597C125.088 247.574 121.117 245.905 118.196 242.957C115.276 240.008 113.646 236.021 113.663 231.871L114.425 51.7244C114.434 49.6684 114.847 47.6342 115.643 45.7381C116.438 43.842 117.599 42.1212 119.059 40.674C120.52 39.2269 122.251 38.0818 124.154 37.3041C126.058 36.5265 128.096 36.1316 130.152 36.142L202.006 36.473C206.156 36.4939 210.128 38.1611 213.049 41.1084C215.971 44.0557 217.604 48.042 217.588 52.192L216.826 232.331C216.817 234.388 216.404 236.423 215.609 238.32C214.814 240.217 213.653 241.938 212.193 243.387C210.732 244.835 209.001 245.981 207.098 246.761C205.194 247.54 203.156 247.937 201.099 247.928Z" fill="#455A64"/>
<path d="M201.898 42.6672H187.97C187.516 42.6756 187.067 42.7734 186.651 42.9552C186.234 43.1369 185.858 43.3989 185.542 43.7263C185.227 44.0536 184.979 44.4399 184.813 44.863C184.647 45.2861 184.566 45.7378 184.575 46.1922V48.7174C184.583 49.1715 184.502 49.6228 184.336 50.0455C184.17 50.4682 183.922 50.854 183.607 51.1808C183.291 51.5075 182.914 51.7689 182.498 51.9498C182.081 52.1308 181.633 52.2278 181.179 52.2353L154.029 52.113C153.11 52.0885 152.239 51.7005 151.606 51.0341C150.974 50.3678 150.631 49.4776 150.655 48.5591V46.034C150.678 45.1167 150.337 44.2276 149.705 43.5614C149.074 42.8953 148.205 42.5065 147.288 42.4801H142.389L130.195 42.4226C127.294 42.4053 124.505 43.538 122.438 45.5726C120.371 47.6073 119.195 50.3781 119.166 53.2784L118.447 229.116C118.44 230.555 118.717 231.981 119.262 233.312C119.806 234.644 120.608 235.856 121.62 236.878C122.633 237.9 123.837 238.713 125.164 239.269C126.491 239.826 127.914 240.116 129.353 240.123L201.063 240.454C202.503 240.46 203.93 240.183 205.263 239.638C206.596 239.093 207.808 238.291 208.831 237.278C209.854 236.265 210.667 235.06 211.224 233.732C211.781 232.404 212.071 230.98 212.078 229.54L212.797 53.7028C212.814 50.7944 211.676 47.9981 209.632 45.9287C207.588 43.8593 204.806 42.6862 201.898 42.6672Z" fill="white"/>
<path d="M192.251 216.994L138.928 216.763C138.374 216.763 137.928 216.159 137.936 215.425L137.993 201.476C137.993 200.757 138.446 200.138 139 200.138L192.323 200.383C192.63 200.436 192.904 200.605 193.089 200.856C193.274 201.106 193.355 201.419 193.315 201.728L193.265 215.663C193.265 216.404 192.805 217.001 192.251 216.994Z" fill="#4CAF4F"/>
<path d="M155.14 210.316C154.846 210.316 154.563 210.269 154.291 210.175C154.023 210.077 153.816 209.952 153.669 209.801L153.833 209.479C153.973 209.615 154.159 209.73 154.393 209.824C154.631 209.915 154.88 209.96 155.14 209.96C155.389 209.96 155.591 209.93 155.746 209.869C155.904 209.805 156.02 209.72 156.091 209.615C156.167 209.509 156.204 209.392 156.204 209.264C156.204 209.109 156.159 208.984 156.069 208.89C155.982 208.796 155.867 208.722 155.723 208.669C155.58 208.613 155.421 208.564 155.248 208.522C155.074 208.481 154.901 208.437 154.727 208.392C154.554 208.343 154.393 208.279 154.246 208.2C154.103 208.12 153.986 208.017 153.895 207.888C153.808 207.756 153.765 207.585 153.765 207.373C153.765 207.177 153.816 206.998 153.918 206.836C154.023 206.67 154.184 206.537 154.399 206.439C154.614 206.337 154.889 206.287 155.225 206.287C155.448 206.287 155.669 206.319 155.887 206.383C156.106 206.443 156.295 206.528 156.453 206.637L156.312 206.971C156.142 206.858 155.961 206.775 155.769 206.722C155.58 206.67 155.397 206.643 155.22 206.643C154.982 206.643 154.786 206.675 154.631 206.739C154.476 206.803 154.361 206.89 154.286 207C154.214 207.105 154.178 207.226 154.178 207.362C154.178 207.517 154.222 207.641 154.308 207.735C154.399 207.83 154.516 207.903 154.659 207.956C154.806 208.009 154.967 208.056 155.14 208.098C155.314 208.139 155.486 208.185 155.655 208.234C155.829 208.283 155.987 208.347 156.131 208.426C156.278 208.501 156.395 208.603 156.482 208.732C156.572 208.86 156.618 209.028 156.618 209.235C156.618 209.428 156.565 209.607 156.459 209.773C156.353 209.935 156.191 210.067 155.972 210.169C155.757 210.267 155.48 210.316 155.14 210.316ZM157.53 210.282V206.321H157.949V210.282H157.53ZM159.238 210.282V206.321H159.583L162.317 209.762H162.136V206.321H162.549V210.282H162.204L159.476 206.841H159.657V210.282H159.238ZM165.58 210.316C165.278 210.316 164.999 210.267 164.742 210.169C164.489 210.067 164.269 209.926 164.08 209.745C163.895 209.564 163.75 209.35 163.644 209.105C163.542 208.86 163.491 208.592 163.491 208.301C163.491 208.011 163.542 207.743 163.644 207.498C163.75 207.253 163.897 207.039 164.086 206.858C164.274 206.677 164.495 206.537 164.748 206.439C165.005 206.337 165.284 206.287 165.586 206.287C165.887 206.287 166.163 206.334 166.412 206.428C166.665 206.522 166.88 206.666 167.057 206.858L166.797 207.124C166.631 206.958 166.448 206.839 166.248 206.768C166.048 206.696 165.833 206.66 165.603 206.66C165.357 206.66 165.131 206.702 164.923 206.785C164.72 206.864 164.54 206.979 164.386 207.13C164.235 207.277 164.116 207.451 164.029 207.651C163.946 207.847 163.905 208.064 163.905 208.301C163.905 208.535 163.946 208.752 164.029 208.952C164.116 209.152 164.235 209.328 164.386 209.479C164.54 209.626 164.72 209.741 164.923 209.824C165.131 209.903 165.355 209.943 165.597 209.943C165.823 209.943 166.037 209.909 166.237 209.841C166.44 209.773 166.627 209.658 166.797 209.496L167.035 209.813C166.846 209.979 166.625 210.105 166.372 210.192C166.12 210.275 165.855 210.316 165.58 210.316ZM166.633 209.762V208.301H167.035V209.813L166.633 209.762ZM171.297 210.316C170.792 210.316 170.394 210.171 170.103 209.881C169.813 209.59 169.667 209.16 169.667 208.59V206.321H170.086V208.573C170.086 209.041 170.192 209.386 170.403 209.609C170.614 209.832 170.913 209.943 171.297 209.943C171.686 209.943 171.986 209.832 172.197 209.609C172.409 209.386 172.514 209.041 172.514 208.573V206.321H172.922V208.59C172.922 209.16 172.777 209.59 172.486 209.881C172.199 210.171 171.803 210.316 171.297 210.316ZM174.184 210.282V206.321H175.667C176.003 206.321 176.291 206.375 176.533 206.485C176.774 206.59 176.959 206.745 177.087 206.949C177.22 207.149 177.286 207.392 177.286 207.679C177.286 207.958 177.22 208.2 177.087 208.403C176.959 208.603 176.774 208.758 176.533 208.867C176.291 208.977 176.003 209.032 175.667 209.032H174.416L174.603 208.834V210.282H174.184ZM174.603 208.867L174.416 208.664H175.655C176.052 208.664 176.352 208.579 176.555 208.409C176.763 208.235 176.867 207.992 176.867 207.679C176.867 207.362 176.763 207.117 176.555 206.943C176.352 206.77 176.052 206.683 175.655 206.683H174.416L174.603 206.485V208.867Z" fill="#E8E8E3"/>
<path d="M149.564 94.3564L131.061 94.2725L131.046 97.668L149.549 97.752L149.564 94.3564Z" fill="#4CAF4F"/>
<path opacity="0.1" d="M149.564 94.3564L131.061 94.2725L131.046 97.668L149.549 97.752L149.564 94.3564Z" fill="black"/>
<path d="M203.804 115.205C203.95 115.19 204.092 115.156 204.229 115.104C204.428 115.026 204.601 114.894 204.728 114.722C204.856 114.55 204.932 114.346 204.948 114.133C204.948 112.989 204.948 111.32 204.948 109.176C204.948 108.104 204.948 106.903 204.948 105.579C204.948 105.255 204.948 104.917 204.948 104.579C204.995 104.251 204.924 103.917 204.747 103.637C204.648 103.502 204.519 103.393 204.37 103.317C204.222 103.241 204.058 103.2 203.891 103.198H202.768H192.373L132.202 102.975C132.048 102.972 131.896 103.007 131.758 103.076C131.62 103.145 131.501 103.246 131.411 103.371C131.237 103.652 131.17 103.987 131.223 104.313C131.223 105.032 131.223 105.752 131.223 106.471C131.223 107.91 131.223 109.349 131.223 110.788C131.223 111.507 131.223 112.227 131.223 112.946C131.194 113.281 131.194 113.618 131.223 113.953C131.261 114.097 131.332 114.23 131.429 114.342C131.526 114.454 131.648 114.543 131.785 114.601C131.926 114.657 132.078 114.684 132.231 114.68H135.892L151.87 114.766L178.92 114.931L197.157 115.075L202.114 115.133H203.402C203.696 115.133 203.84 115.133 203.84 115.133H203.402H202.114H197.157H178.92L151.87 115.047L135.892 114.982H132.231C132.029 114.99 131.828 114.956 131.641 114.881C131.451 114.8 131.283 114.677 131.148 114.521C131.014 114.366 130.916 114.181 130.864 113.982C130.822 113.793 130.808 113.599 130.821 113.406V112.874C130.821 112.155 130.821 111.435 130.821 110.716C130.821 109.277 130.821 107.838 130.821 106.399C130.821 105.68 130.821 104.96 130.821 104.241C130.807 104.049 130.807 103.857 130.821 103.666C130.848 103.454 130.929 103.253 131.058 103.083C131.182 102.909 131.346 102.768 131.537 102.672C131.727 102.575 131.938 102.526 132.152 102.529L192.323 102.86L202.718 102.932H203.84C204.038 102.932 204.233 102.98 204.408 103.071C204.584 103.163 204.734 103.295 204.848 103.457C205.05 103.77 205.132 104.146 205.078 104.514C205.078 104.853 205.078 105.191 205.078 105.514C205.078 106.824 205.078 108.025 205.078 109.111C205.078 111.27 205.027 112.924 205.013 114.075C204.995 114.297 204.915 114.508 204.781 114.686C204.647 114.863 204.466 114.998 204.258 115.075C204.121 115.16 203.965 115.205 203.804 115.205Z" fill="#E0E0E0"/>
<path d="M170.46 106.586H136.619V109.759H170.46V106.586Z" fill="#4CAF4F"/>
<path opacity="0.2" d="M170.46 106.586H136.619V109.759H170.46V106.586Z" fill="white"/>
<path d="M149.438 125.333L130.935 125.249L130.92 128.645L149.422 128.729L149.438 125.333Z" fill="#4CAF4F"/>
<path opacity="0.1" d="M149.438 125.333L130.935 125.249L130.92 128.645L149.422 128.729L149.438 125.333Z" fill="black"/>
<path d="M203.337 146.182C203.482 146.165 203.626 146.138 203.768 146.103C203.969 146.039 204.154 145.933 204.311 145.792C204.467 145.65 204.591 145.477 204.675 145.283C204.788 144.993 204.833 144.68 204.804 144.37C204.804 144.024 204.804 143.65 204.804 143.233C204.804 142.398 204.804 141.449 204.804 140.355V135.787C204.839 135.456 204.766 135.123 204.596 134.837C204.418 134.544 204.139 134.327 203.812 134.226C203.453 134.162 203.088 134.143 202.725 134.168H192.373L132.411 133.945C132.088 133.946 131.777 134.064 131.535 134.277C131.292 134.49 131.136 134.784 131.094 135.104C131.094 135.787 131.094 136.542 131.094 137.262C131.094 138.701 131.094 140.139 131.094 141.578C131.094 142.298 131.094 143.017 131.094 143.737C131.067 144.073 131.082 144.411 131.137 144.744C131.227 145.035 131.412 145.289 131.662 145.463C131.928 145.632 132.24 145.712 132.554 145.693H133.554H135.633L151.554 145.772L178.51 145.938L196.682 146.082L201.625 146.139H196.682H178.51L151.54 146.111L135.619 146.053H132.49C132.101 146.076 131.714 145.973 131.389 145.758C131.062 145.531 130.823 145.198 130.713 144.816C130.648 144.45 130.629 144.078 130.655 143.708C130.655 142.988 130.655 142.269 130.655 141.55C130.655 140.111 130.655 138.672 130.655 137.233C130.655 136.514 130.655 135.794 130.655 135.075C130.708 134.663 130.908 134.285 131.219 134.011C131.531 133.737 131.931 133.586 132.346 133.586L192.308 133.917L202.661 133.996C203.046 133.972 203.433 133.999 203.812 134.075C204.185 134.197 204.501 134.453 204.696 134.794C204.883 135.111 204.963 135.479 204.927 135.845C204.927 136.183 204.927 136.514 204.927 136.845C204.927 138.147 204.927 139.341 204.927 140.442C204.927 141.542 204.927 142.47 204.927 143.319C204.927 143.729 204.927 144.111 204.927 144.463C204.953 144.785 204.901 145.108 204.776 145.406C204.682 145.604 204.547 145.78 204.38 145.922C204.212 146.063 204.016 146.167 203.804 146.226C203.647 146.239 203.489 146.224 203.337 146.182Z" fill="#E0E0E0"/>
<path d="M149.298 157.655L130.796 157.571L130.78 160.967L149.283 161.051L149.298 157.655Z" fill="#4CAF4F"/>
<path opacity="0.1" d="M149.298 157.655L130.796 157.571L130.78 160.967L149.283 161.051L149.298 157.655Z" fill="black"/>
<path d="M203.193 178.491C203.338 178.474 203.482 178.447 203.625 178.412C203.825 178.348 204.009 178.243 204.165 178.103C204.321 177.963 204.446 177.791 204.531 177.599C204.644 177.308 204.688 176.996 204.66 176.685C204.66 176.333 204.66 175.966 204.66 175.541C204.66 174.714 204.66 173.757 204.66 172.664V168.095C204.695 167.765 204.622 167.432 204.452 167.146C204.27 166.858 203.992 166.644 203.668 166.542C203.31 166.475 202.945 166.453 202.581 166.477H192.229L132.267 166.254C131.944 166.255 131.633 166.372 131.391 166.585C131.148 166.798 130.992 167.092 130.95 167.412C130.95 168.131 130.95 168.851 130.95 169.57C130.95 171.009 130.95 172.448 130.95 173.887C130.95 174.606 130.95 175.325 130.95 176.045C130.923 176.379 130.938 176.715 130.993 177.045C131.079 177.338 131.265 177.593 131.518 177.764C131.783 177.937 132.096 178.018 132.411 177.994H135.54L151.46 178.081L178.417 178.246L196.589 178.39L201.531 178.448H196.589H178.417L151.46 178.369L135.54 178.304H132.411C132.021 178.33 131.634 178.226 131.31 178.009C130.982 177.782 130.744 177.449 130.634 177.066C130.569 176.701 130.55 176.329 130.576 175.959C130.576 175.239 130.576 174.52 130.576 173.8C130.576 172.362 130.576 170.923 130.576 169.484C130.576 168.764 130.576 168.045 130.576 167.29C130.627 166.879 130.826 166.501 131.136 166.227C131.446 165.952 131.846 165.801 132.259 165.801L192.222 166.131L202.574 166.211C202.96 166.187 203.347 166.214 203.725 166.29C204.099 166.412 204.414 166.668 204.61 167.009C204.796 167.326 204.877 167.694 204.84 168.059C204.84 168.398 204.84 168.736 204.84 169.059C204.84 170.362 204.84 171.556 204.84 172.656C204.84 173.757 204.84 174.685 204.84 175.534C204.84 175.944 204.84 176.325 204.84 176.678C204.868 177 204.816 177.323 204.689 177.62C204.596 177.819 204.461 177.995 204.293 178.136C204.126 178.278 203.929 178.382 203.718 178.441C203.549 178.498 203.369 178.515 203.193 178.491Z" fill="#E0E0E0"/>
<path d="M169.737 138.461L135.897 138.307L135.883 141.48L169.723 141.633L169.737 138.461Z" fill="#4CAF4F"/>
<path opacity="0.2" d="M169.737 138.461L135.897 138.307L135.883 141.48L169.723 141.633L169.737 138.461Z" fill="white"/>
<path d="M138.957 172.621C138.936 172.91 138.83 173.187 138.653 173.417C138.476 173.647 138.235 173.819 137.961 173.914C137.687 174.008 137.39 174.02 137.11 173.947C136.829 173.875 136.575 173.722 136.38 173.507C136.186 173.292 136.058 173.024 136.014 172.737C135.97 172.45 136.011 172.157 136.133 171.893C136.254 171.63 136.45 171.407 136.696 171.254C136.942 171.101 137.228 171.023 137.518 171.031C137.919 171.053 138.295 171.233 138.564 171.53C138.834 171.828 138.975 172.22 138.957 172.621Z" fill="#4CAF4F"/>
<path d="M143.54 172.642C143.554 172.845 143.526 173.049 143.458 173.24C143.39 173.432 143.284 173.608 143.145 173.756C143.006 173.905 142.839 174.024 142.652 174.105C142.466 174.186 142.265 174.227 142.061 174.227C141.858 174.227 141.657 174.186 141.47 174.105C141.284 174.024 141.116 173.905 140.978 173.756C140.839 173.608 140.732 173.432 140.664 173.24C140.597 173.049 140.569 172.845 140.583 172.642C140.569 172.439 140.597 172.236 140.664 172.044C140.732 171.853 140.839 171.677 140.978 171.528C141.116 171.38 141.284 171.261 141.47 171.18C141.657 171.099 141.858 171.057 142.061 171.057C142.265 171.057 142.466 171.099 142.652 171.18C142.839 171.261 143.006 171.38 143.145 171.528C143.284 171.677 143.39 171.853 143.458 172.044C143.526 172.236 143.554 172.439 143.54 172.642Z" fill="#4CAF4F"/>
<path d="M148.13 172.664C148.108 172.953 148.003 173.23 147.826 173.46C147.648 173.69 147.408 173.862 147.133 173.957C146.859 174.051 146.563 174.063 146.282 173.99C146.001 173.918 145.747 173.765 145.553 173.55C145.358 173.335 145.231 173.067 145.187 172.78C145.143 172.493 145.184 172.2 145.305 171.936C145.426 171.673 145.622 171.45 145.868 171.297C146.115 171.144 146.401 171.066 146.691 171.074C147.091 171.098 147.466 171.278 147.735 171.575C148.004 171.872 148.145 172.263 148.13 172.664Z" fill="#4CAF4F"/>
<path d="M152.712 172.685C152.691 172.975 152.585 173.252 152.408 173.481C152.231 173.711 151.99 173.884 151.716 173.978C151.442 174.073 151.146 174.084 150.865 174.012C150.584 173.94 150.33 173.787 150.135 173.571C149.941 173.356 149.813 173.089 149.769 172.802C149.725 172.515 149.766 172.222 149.888 171.958C150.009 171.694 150.205 171.472 150.451 171.319C150.697 171.165 150.983 171.088 151.273 171.095C151.673 171.12 152.048 171.3 152.317 171.597C152.586 171.894 152.728 172.285 152.712 172.685Z" fill="#4CAF4F"/>
<path d="M157.295 172.7C157.275 172.989 157.17 173.267 156.994 173.498C156.818 173.729 156.577 173.903 156.303 173.998C156.029 174.094 155.732 174.106 155.451 174.035C155.169 173.963 154.915 173.81 154.72 173.595C154.524 173.38 154.396 173.113 154.352 172.826C154.307 172.539 154.348 172.245 154.469 171.981C154.59 171.717 154.786 171.494 155.033 171.341C155.279 171.187 155.566 171.109 155.856 171.117C156.255 171.141 156.628 171.32 156.897 171.616C157.166 171.911 157.309 172.3 157.295 172.7Z" fill="#4CAF4F"/>
<path d="M161.885 172.721C161.865 173.01 161.761 173.286 161.587 173.516C161.412 173.746 161.174 173.921 160.902 174.017C160.629 174.114 160.335 174.129 160.054 174.06C159.773 173.992 159.519 173.842 159.322 173.631C159.125 173.42 158.994 173.155 158.945 172.87C158.897 172.585 158.932 172.293 159.048 172.028C159.163 171.763 159.354 171.538 159.596 171.38C159.838 171.222 160.121 171.138 160.41 171.139C160.815 171.154 161.198 171.329 161.474 171.625C161.751 171.922 161.898 172.316 161.885 172.721Z" fill="#4CAF4F"/>
<path d="M166.467 172.743C166.481 172.946 166.454 173.149 166.386 173.341C166.318 173.533 166.211 173.708 166.073 173.857C165.934 174.006 165.766 174.124 165.58 174.205C165.393 174.286 165.192 174.328 164.989 174.328C164.785 174.328 164.584 174.286 164.398 174.205C164.211 174.124 164.044 174.006 163.905 173.857C163.766 173.708 163.66 173.533 163.592 173.341C163.524 173.149 163.496 172.946 163.51 172.743C163.496 172.54 163.524 172.336 163.592 172.145C163.66 171.953 163.766 171.778 163.905 171.629C164.044 171.48 164.211 171.362 164.398 171.281C164.584 171.2 164.785 171.158 164.989 171.158C165.192 171.158 165.393 171.2 165.58 171.281C165.766 171.362 165.934 171.48 166.073 171.629C166.211 171.778 166.318 171.953 166.386 172.145C166.454 172.336 166.481 172.54 166.467 172.743Z" fill="#4CAF4F"/>
<path d="M171.05 172.765C171.03 173.053 170.927 173.329 170.752 173.559C170.577 173.79 170.339 173.964 170.067 174.06C169.795 174.157 169.5 174.172 169.219 174.103C168.939 174.035 168.684 173.886 168.487 173.674C168.29 173.463 168.159 173.198 168.11 172.913C168.062 172.629 168.097 172.336 168.213 172.071C168.329 171.806 168.519 171.581 168.761 171.423C169.003 171.265 169.286 171.181 169.575 171.182C169.98 171.197 170.363 171.372 170.639 171.669C170.916 171.965 171.063 172.359 171.05 172.765Z" fill="#4CAF4F"/>
<path d="M175.632 172.786C175.613 173.076 175.508 173.353 175.332 173.584C175.155 173.815 174.915 173.989 174.641 174.085C174.366 174.18 174.07 174.193 173.789 174.121C173.507 174.049 173.253 173.897 173.057 173.682C172.862 173.467 172.734 173.199 172.689 172.912C172.645 172.625 172.686 172.331 172.807 172.067C172.928 171.803 173.124 171.581 173.37 171.427C173.617 171.273 173.903 171.196 174.194 171.203C174.592 171.228 174.966 171.407 175.235 171.702C175.504 171.998 175.646 172.387 175.632 172.786Z" fill="#4CAF4F"/>
<g opacity="0.2">
<path d="M138.957 172.621C138.936 172.91 138.83 173.187 138.653 173.417C138.476 173.647 138.235 173.819 137.961 173.914C137.687 174.008 137.39 174.02 137.11 173.947C136.829 173.875 136.575 173.722 136.38 173.507C136.186 173.292 136.058 173.024 136.014 172.737C135.97 172.45 136.011 172.157 136.133 171.893C136.254 171.63 136.45 171.407 136.696 171.254C136.942 171.101 137.228 171.023 137.518 171.031C137.919 171.053 138.295 171.233 138.564 171.53C138.834 171.828 138.975 172.22 138.957 172.621Z" fill="white"/>
<path d="M143.54 172.642C143.554 172.845 143.526 173.049 143.458 173.24C143.39 173.432 143.284 173.608 143.145 173.756C143.006 173.905 142.839 174.024 142.652 174.105C142.466 174.186 142.265 174.227 142.061 174.227C141.858 174.227 141.657 174.186 141.47 174.105C141.284 174.024 141.116 173.905 140.978 173.756C140.839 173.608 140.732 173.432 140.664 173.24C140.596 173.049 140.569 172.845 140.583 172.642C140.569 172.439 140.596 172.236 140.664 172.044C140.732 171.853 140.839 171.677 140.978 171.528C141.116 171.38 141.284 171.261 141.47 171.18C141.657 171.099 141.858 171.057 142.061 171.057C142.265 171.057 142.466 171.099 142.652 171.18C142.839 171.261 143.006 171.38 143.145 171.528C143.284 171.677 143.39 171.853 143.458 172.044C143.526 172.236 143.554 172.439 143.54 172.642Z" fill="white"/>
<path d="M148.13 172.664C148.108 172.953 148.003 173.23 147.825 173.46C147.648 173.69 147.408 173.863 147.133 173.957C146.859 174.051 146.563 174.063 146.282 173.991C146.001 173.918 145.747 173.765 145.553 173.55C145.358 173.335 145.231 173.067 145.187 172.78C145.143 172.494 145.184 172.2 145.305 171.937C145.426 171.673 145.622 171.451 145.868 171.297C146.115 171.144 146.401 171.066 146.691 171.074C147.091 171.098 147.466 171.278 147.735 171.575C148.003 171.873 148.145 172.263 148.13 172.664Z" fill="white"/>
<path d="M152.712 172.685C152.691 172.975 152.585 173.252 152.408 173.481C152.231 173.711 151.99 173.884 151.716 173.978C151.442 174.073 151.146 174.084 150.865 174.012C150.584 173.94 150.33 173.787 150.135 173.571C149.941 173.356 149.813 173.089 149.769 172.802C149.725 172.515 149.766 172.222 149.888 171.958C150.009 171.694 150.205 171.472 150.451 171.319C150.697 171.165 150.983 171.088 151.273 171.095C151.673 171.12 152.048 171.3 152.317 171.597C152.586 171.894 152.728 172.285 152.712 172.685Z" fill="white"/>
<path d="M157.295 172.7C157.275 172.99 157.17 173.267 156.994 173.498C156.818 173.729 156.577 173.903 156.303 173.998C156.029 174.094 155.732 174.107 155.451 174.035C155.169 173.963 154.915 173.811 154.72 173.596C154.524 173.381 154.396 173.113 154.352 172.826C154.307 172.539 154.348 172.245 154.469 171.981C154.59 171.717 154.786 171.494 155.033 171.341C155.279 171.187 155.566 171.109 155.856 171.117C156.255 171.141 156.628 171.32 156.897 171.616C157.166 171.912 157.309 172.301 157.295 172.7Z" fill="white"/>
<path d="M161.885 172.721C161.865 173.01 161.761 173.286 161.587 173.516C161.412 173.746 161.174 173.921 160.902 174.017C160.629 174.114 160.335 174.129 160.054 174.06C159.773 173.992 159.519 173.842 159.322 173.631C159.125 173.42 158.994 173.155 158.945 172.87C158.896 172.585 158.932 172.293 159.048 172.028C159.163 171.763 159.354 171.538 159.596 171.38C159.838 171.222 160.121 171.138 160.41 171.139C160.815 171.154 161.198 171.329 161.474 171.625C161.751 171.922 161.898 172.316 161.885 172.721Z" fill="white"/>
<path d="M166.467 172.743C166.481 172.946 166.454 173.149 166.386 173.341C166.318 173.533 166.211 173.708 166.073 173.857C165.934 174.006 165.766 174.124 165.58 174.205C165.393 174.286 165.192 174.328 164.989 174.328C164.785 174.328 164.584 174.286 164.398 174.205C164.211 174.124 164.044 174.006 163.905 173.857C163.766 173.708 163.66 173.533 163.592 173.341C163.524 173.149 163.496 172.946 163.51 172.743C163.496 172.54 163.524 172.336 163.592 172.145C163.66 171.953 163.766 171.778 163.905 171.629C164.044 171.48 164.211 171.362 164.398 171.281C164.584 171.2 164.785 171.158 164.989 171.158C165.192 171.158 165.393 171.2 165.58 171.281C165.766 171.362 165.934 171.48 166.073 171.629C166.211 171.778 166.318 171.953 166.386 172.145C166.454 172.336 166.481 172.54 166.467 172.743Z" fill="white"/>
<path d="M171.05 172.765C171.03 173.053 170.927 173.329 170.752 173.559C170.577 173.79 170.339 173.964 170.067 174.06C169.795 174.157 169.5 174.172 169.219 174.103C168.938 174.035 168.684 173.886 168.487 173.674C168.29 173.463 168.159 173.198 168.11 172.913C168.062 172.629 168.097 172.336 168.213 172.071C168.329 171.806 168.519 171.581 168.761 171.423C169.003 171.265 169.286 171.181 169.575 171.182C169.98 171.197 170.363 171.372 170.639 171.669C170.916 171.965 171.063 172.359 171.05 172.765Z" fill="white"/>
<path d="M175.632 172.786C175.613 173.076 175.508 173.353 175.332 173.584C175.155 173.815 174.915 173.989 174.641 174.085C174.366 174.18 174.07 174.193 173.789 174.121C173.507 174.049 173.253 173.897 173.057 173.682C172.862 173.467 172.734 173.199 172.689 172.912C172.645 172.625 172.686 172.331 172.807 172.067C172.928 171.803 173.124 171.581 173.37 171.427C173.617 171.273 173.903 171.196 174.194 171.203C174.592 171.228 174.966 171.407 175.235 171.702C175.504 171.998 175.646 172.387 175.632 172.786Z" fill="white"/>
</g>
<path d="M169.122 68.9325C169.622 68.7124 170.046 68.3503 170.341 67.891C170.637 67.4318 170.79 66.8959 170.784 66.3498C170.802 65.9949 170.748 65.6399 170.625 65.3064C170.502 64.9729 170.313 64.668 170.068 64.4101C169.823 64.1523 169.529 63.947 169.202 63.8067C168.876 63.6664 168.524 63.594 168.169 63.594C167.813 63.594 167.461 63.6664 167.135 63.8067C166.808 63.947 166.514 64.1523 166.269 64.4101C166.024 64.668 165.835 64.9729 165.712 65.3064C165.589 65.6399 165.535 65.9949 165.554 66.3498C165.543 66.9013 165.695 67.4437 165.992 67.9085C166.289 68.3733 166.717 68.7396 167.223 68.9613C163.194 69.5656 163.374 73.9396 163.374 73.9396L172.899 73.9827C172.899 73.9827 173.122 69.5296 169.122 68.9325Z" fill="#4CAF4F"/>
<path opacity="0.1" d="M169.122 68.9325C169.622 68.7124 170.046 68.3503 170.341 67.891C170.637 67.4318 170.79 66.8959 170.784 66.3498C170.802 65.9949 170.748 65.6399 170.625 65.3064C170.502 64.9729 170.313 64.668 170.068 64.4101C169.823 64.1523 169.529 63.947 169.202 63.8067C168.876 63.6664 168.524 63.594 168.169 63.594C167.813 63.594 167.461 63.6664 167.135 63.8067C166.808 63.947 166.514 64.1523 166.269 64.4101C166.024 64.668 165.835 64.9729 165.712 65.3064C165.589 65.6399 165.535 65.9949 165.554 66.3498C165.543 66.9013 165.695 67.4437 165.992 67.9085C166.289 68.3733 166.717 68.7396 167.223 68.9613C163.194 69.5656 163.374 73.9396 163.374 73.9396L172.899 73.9827C172.899 73.9827 173.122 69.5296 169.122 68.9325Z" fill="black"/>
<path d="M184.599 76.804L150.651 76.6499L150.633 80.7073L184.581 80.8614L184.599 76.804Z" fill="#4CAF4F"/>
<path opacity="0.2" d="M184.599 76.804L150.651 76.6499L150.633 80.7073L184.581 80.8614L184.599 76.804Z" fill="white"/>
<path d="M59.7936 97.8311H59.4555L58.4771 97.903C57.9476 97.9349 57.4211 98.0046 56.9016 98.1117C56.5651 98.1589 56.2314 98.2238 55.9017 98.3059L54.7866 98.6153C52.8887 99.1975 51.098 100.084 49.4845 101.241C47.3529 102.788 45.5729 104.769 44.2617 107.054C43.491 108.371 42.8777 109.774 42.4344 111.234C41.9685 112.82 41.7003 114.459 41.6358 116.111C41.593 116.979 41.6074 117.849 41.679 118.715C41.679 119.154 41.8013 119.593 41.8588 120.039C41.9073 120.489 41.9914 120.934 42.1106 121.37C42.7575 124.257 44.0701 126.953 45.9437 129.242C47.8173 131.532 50.2 133.352 52.9017 134.557C54.8571 135.401 56.953 135.871 59.0814 135.945C61.2797 136.066 63.4802 135.751 65.5561 135.017L66.1892 134.78H66.2755L66.3474 134.823L75.4191 139.427L75.153 139.657C74.1818 136.65 73.2465 133.737 72.3401 130.938V130.83L72.4192 130.751C74.6199 128.535 76.2535 125.82 77.1817 122.838C78.0223 120.111 78.2677 117.236 77.9011 114.406C77.575 111.892 76.7665 109.463 75.5199 107.255C74.4453 105.358 73.059 103.656 71.4192 102.219C70.0664 101.082 68.569 100.129 66.9661 99.385C65.7533 98.8619 64.4902 98.4642 63.1964 98.198L61.7576 97.9606L60.7145 97.8815L60.0814 97.8383H59.8656C59.9373 97.8303 60.0097 97.8303 60.0814 97.8383H60.7217L61.7648 97.8815L63.2036 98.0901C64.5135 98.3368 65.7938 98.7202 67.0237 99.234C68.6541 99.9694 70.1785 100.92 71.5559 102.061C73.2259 103.491 74.6415 105.194 75.7429 107.097C77.0249 109.329 77.8582 111.79 78.1961 114.341C78.593 117.215 78.3648 120.14 77.527 122.917C76.5928 125.961 74.9339 128.733 72.6926 130.996L72.7358 130.809C73.6422 133.607 74.5846 136.521 75.563 139.521L75.6997 139.96L75.2896 139.751L66.2179 135.154H66.3762L65.7287 135.391C63.6129 136.136 61.3717 136.458 59.1318 136.341C56.9575 136.258 54.8178 135.77 52.8226 134.902C49.0167 133.272 45.8503 130.439 43.8084 126.838C42.8688 125.174 42.1826 123.38 41.7725 121.514C41.6602 121.066 41.5761 120.612 41.5207 120.154C41.4632 119.701 41.3696 119.255 41.3481 118.809C41.1534 116.249 41.4239 113.675 42.1466 111.212C42.601 109.732 43.2314 108.312 44.0243 106.982C45.3668 104.677 47.1838 102.683 49.3551 101.133C50.995 99.9735 52.8158 99.0935 54.7434 98.5289L55.8729 98.2412C56.2053 98.1641 56.5415 98.104 56.88 98.0613C57.4049 97.9641 57.9364 97.9064 58.4699 97.8887L59.4555 97.8527C59.5676 97.8376 59.6806 97.8304 59.7936 97.8311Z" fill="#4CAF4F"/>
<path d="M63.8942 114.608H62.5633L59.6857 110.565V107.91C59.6857 107.91 57.6282 107.781 57.8728 111.255C58.1174 114.73 57.8728 113.845 57.8728 113.845C57.8728 113.845 53.506 113.845 53.1463 114.241C52.7866 114.636 52.765 118.852 52.7146 121.205C52.6871 121.772 52.8498 122.332 53.177 122.796C53.5041 123.26 53.977 123.601 54.5204 123.766C54.6727 123.808 54.8299 123.83 54.988 123.831C56.0815 123.831 61.6425 122.946 61.6425 122.946H63.9374L63.8942 114.608Z" fill="#4CAF4F"/>
<path d="M67.6999 113.896L66.8798 122.989H64.6064V114.083L67.6999 113.896Z" fill="#4CAF4F"/>
<path d="M94.8143 299.02V292.869L83.7858 292.79L83.6923 302.092L84.3758 302.143C87.4188 302.337 99.8574 302.625 101.9 301.991C104.174 301.286 94.8143 299.02 94.8143 299.02Z" fill="#4CAF4F"/>
<path d="M102.159 301.416C102.159 301.517 98.0301 301.603 92.9439 301.603C87.8577 301.603 83.7283 301.517 83.7283 301.416C83.7283 301.315 87.8577 301.229 92.9439 301.229C98.0301 301.229 102.159 301.315 102.159 301.416Z" fill="#263238"/>
<path d="M95.0086 300.279C94.915 300.229 95.0086 299.905 95.2316 299.56C95.4546 299.214 95.7567 299.071 95.8287 299.143C95.9006 299.215 95.7495 299.488 95.5337 299.783C95.3179 300.078 95.1021 300.33 95.0086 300.279Z" fill="#263238"/>
<path d="M95.7136 300.682C95.6129 300.682 95.6632 300.279 95.8791 299.898C96.0949 299.517 96.3826 299.286 96.4618 299.344C96.5409 299.402 96.4114 299.725 96.21 300.063C96.0086 300.402 95.8071 300.718 95.7136 300.682Z" fill="#263238"/>
<path d="M87.0519 301.387C87.0088 301.387 86.8433 301.258 86.6059 300.984C86.3161 300.633 85.9933 300.31 85.6419 300.02C85.2963 299.744 84.8847 299.563 84.4477 299.495C84.1096 299.452 83.8937 299.495 83.8722 299.452C83.8506 299.409 84.0592 299.258 84.4549 299.229C84.9771 299.218 85.4864 299.391 85.8937 299.718C86.2752 300.029 86.597 300.407 86.8433 300.833C87.0088 301.15 87.0951 301.358 87.0519 301.387Z" fill="#263238"/>
<path d="M95.0445 299.121C95.0949 299.207 94.9078 299.423 94.5913 299.538C94.2748 299.653 93.9942 299.61 93.9798 299.538C93.9654 299.466 94.1884 299.315 94.4618 299.215C94.7352 299.114 94.987 299.035 95.0445 299.121Z" fill="#263238"/>
<path d="M94.8719 298.524C94.8719 298.632 94.5841 298.718 94.21 298.725C93.8359 298.733 93.541 298.646 93.5482 298.546C93.5554 298.445 93.8503 298.351 94.21 298.344C94.5697 298.337 94.8575 298.423 94.8719 298.524Z" fill="#263238"/>
<path d="M121.972 299.02V292.869L110.943 292.79L110.85 301.999L111.533 302.049C114.576 302.243 127.022 302.625 129.058 301.991C131.331 301.286 121.972 299.02 121.972 299.02Z" fill="#4CAF4F"/>
<path d="M129.317 301.43C129.317 301.531 125.195 301.618 120.101 301.618C115.008 301.618 110.893 301.531 110.893 301.43C110.893 301.33 115.015 301.243 120.101 301.243C125.188 301.243 129.317 301.33 129.317 301.43Z" fill="#263238"/>
<path d="M122.166 300.279C122.08 300.229 122.166 299.905 122.389 299.56C122.612 299.214 122.914 299.071 122.986 299.143C123.058 299.215 122.907 299.488 122.691 299.783C122.476 300.078 122.26 300.33 122.166 300.279Z" fill="#263238"/>
<path d="M122.871 300.682C122.778 300.682 122.821 300.279 123.044 299.898C123.267 299.517 123.547 299.286 123.627 299.344C123.706 299.402 123.569 299.725 123.368 300.063C123.166 300.402 122.972 300.718 122.871 300.682Z" fill="#263238"/>
<path d="M114.209 301.387C114.166 301.387 114.008 301.258 113.763 300.984C113.474 300.633 113.151 300.31 112.799 300.02C112.454 299.744 112.042 299.563 111.605 299.495C111.274 299.452 111.051 299.495 111.03 299.452C111.008 299.409 111.217 299.258 111.612 299.229C112.135 299.218 112.644 299.391 113.051 299.718C113.435 300.027 113.757 300.405 114.001 300.833C114.166 301.15 114.253 301.358 114.209 301.387Z" fill="#263238"/>
<path d="M122.202 299.121C122.253 299.207 122.065 299.423 121.749 299.538C121.432 299.653 121.152 299.61 121.137 299.538C121.123 299.466 121.346 299.315 121.619 299.215C121.893 299.114 122.145 299.035 122.202 299.121Z" fill="#263238"/>
<path d="M122.044 298.524C122.044 298.632 121.756 298.718 121.382 298.725C121.008 298.733 120.72 298.646 120.727 298.546C120.735 298.445 121.022 298.351 121.382 298.344C121.742 298.337 122.044 298.423 122.044 298.524Z" fill="#263238"/>
<path d="M162.604 116.363C162.316 116.068 161.604 116.212 161.604 116.212C161.675 115.798 161.675 115.374 161.604 114.96C161.474 114.557 160.568 114.637 160.568 114.637C160.526 114.297 160.526 113.954 160.568 113.615C160.575 113.54 160.559 113.464 160.522 113.399C160.484 113.333 160.428 113.28 160.359 113.248C159.931 113.073 159.47 112.99 159.007 113.003C158.453 112.608 160.698 109.464 161.532 108.457C162.367 107.45 162.215 106.666 161.474 106.666C160.964 106.666 158.345 109.687 157.539 110.701C156.734 111.716 154.597 114.536 154.525 112.284C154.453 110.032 153.547 108.335 152.978 108.047C152.41 107.759 151.806 108.435 152.115 109.061C152.387 109.772 152.556 110.518 152.619 111.277C152.697 111.881 152.67 112.495 152.539 113.09C152.301 114.197 151.976 115.285 151.568 116.342H151.511C151.511 116.342 135.813 131.399 134.677 132.471C133.662 133.435 113.26 131.327 109.166 130.895C107.775 130.692 106.371 130.595 104.965 130.607C103.188 130.686 102.872 130.938 101.102 130.96C96.6326 131.009 92.1736 131.402 87.7641 132.133C85.7675 132.472 83.9025 133.353 82.3725 134.68C80.8426 136.007 79.7064 137.729 79.0881 139.657C74.9659 152.535 65.628 183.016 63.9806 200.138C62.7357 202.395 61.6118 204.718 60.6137 207.095C59.4555 210.246 59.7361 210.354 60.1246 210.425C61.1749 210.62 62.3691 204.965 62.8151 206.332C63.2612 207.699 60.549 213.073 61.6497 213.231C63.0885 213.433 64.2324 207.476 64.3691 207.001C64.5057 206.526 65.2179 206.677 65.0885 207.123C64.8798 207.756 62.8583 214.469 64.2683 214.684C65.0453 214.799 65.1316 213.382 65.1316 213.382C65.1316 213.382 66.5704 206.958 67.2251 207.087C67.8798 207.217 67.1819 211.008 66.851 212.274C66.5201 213.541 66.9805 214.181 67.6567 213.871C68.1172 213.656 69.2179 209.807 69.52 208.555C69.8222 207.303 70.5775 203.836 71.5919 205.843C72.6062 207.85 74.1458 209.015 74.7789 209.044C74.9215 209.028 75.056 208.969 75.165 208.875C75.2739 208.782 75.3524 208.658 75.3903 208.519C75.4283 208.381 75.4239 208.234 75.3777 208.098C75.3315 207.962 75.2457 207.843 75.1314 207.756C74.5868 207.225 74.1195 206.619 73.7429 205.958C73.4073 205.443 73.1639 204.873 73.0235 204.275C72.7336 203.081 72.5649 201.862 72.5199 200.634L72.4048 199.915C74.0163 191.937 78.6565 168.52 85.3541 153.564L88.1023 159.218L89.2965 163.405L81.9729 181.484L113.21 181.074L108.548 163.132L114.21 144.427C120.332 144.564 136.051 144.794 138.669 143.607C141.964 142.168 159.007 120.644 159.007 120.644C160.118 119.78 161.182 118.858 162.194 117.881C162.194 117.881 163.23 117.011 162.604 116.363Z" fill="#FFBE9D"/>
<path d="M80.5989 168.125C81.5053 165.031 86.1599 149.736 86.1599 149.736C86.1599 149.736 88.4476 162.204 87.8433 163.707C87.2874 164.995 86.6307 166.236 85.8793 167.419C80.5989 175.455 81.2895 179.477 81.2895 179.477L113.195 178.506C113.267 174.045 110.627 163.671 110.08 162.017C109.533 160.362 111.353 154.945 111.353 154.945C111.353 154.945 114.951 151.283 114.821 149.398C114.753 147.705 114.543 146.021 114.195 144.363L133.619 145.082L133.008 131.917L105.109 129.125C104.138 131.866 95.3539 130.521 95.3539 130.521C85.8721 130.838 85.2822 132.579 81.3399 135.643C77.3975 138.708 70.8725 165.009 70.8725 165.009L80.5989 168.125Z" fill="#4CAF4F"/>
<path d="M99.4617 165.009C98.9088 165.108 98.3456 165.137 97.7855 165.096C96.7423 165.096 95.3107 165.024 93.7352 164.865C92.1597 164.707 90.7353 164.484 89.7209 164.283C89.1616 164.211 88.6132 164.071 88.0879 163.865C88.6503 163.866 89.2115 163.919 89.7641 164.024C90.7857 164.153 92.2029 164.333 93.7712 164.491C95.3395 164.65 96.7639 164.758 97.7927 164.829C98.3534 164.837 98.9123 164.897 99.4617 165.009Z" fill="#263238"/>
<path d="M101.649 162.297C101.096 162.568 100.511 162.769 99.9077 162.894C97.0375 163.648 94.0764 163.999 91.1094 163.937C90.4954 163.957 89.8814 163.899 89.2821 163.765C89.888 163.688 90.4988 163.657 91.1094 163.671C92.2389 163.635 93.7928 163.556 95.505 163.355C97.2172 163.153 98.7423 162.865 99.8214 162.635C100.421 162.475 101.032 162.362 101.649 162.297Z" fill="#263238"/>
<path d="M112.382 150.197C112.368 150.745 112.293 151.29 112.159 151.823C111.972 152.823 111.684 154.189 111.318 155.686C110.951 157.182 110.598 158.563 110.282 159.499C110.154 160.034 109.966 160.553 109.72 161.045C109.761 160.499 109.862 159.958 110.023 159.434C110.296 158.312 110.605 157.017 110.951 155.6C111.296 154.182 111.627 152.887 111.9 151.765C111.998 151.225 112.159 150.698 112.382 150.197Z" fill="#263238"/>
<path d="M80.937 166.29C79.2727 166.033 77.6302 165.65 76.0234 165.146C74.3817 164.762 72.7706 164.257 71.2034 163.635C72.8669 163.896 74.5091 164.279 76.117 164.779C77.7591 165.162 79.3703 165.667 80.937 166.29Z" fill="#263238"/>
<path d="M114.54 144.204C114.269 144.251 113.992 144.251 113.72 144.204C112.969 144.127 112.231 143.95 111.526 143.679C110.349 143.237 109.278 142.553 108.381 141.672C107.484 140.791 106.781 139.733 106.318 138.564C105.805 137.278 105.587 135.895 105.677 134.514C105.709 133.375 106.05 132.266 106.663 131.305C107.094 130.658 107.738 130.182 108.483 129.96C108.682 129.905 108.888 129.878 109.095 129.881C109.238 129.881 109.31 129.881 109.31 129.881C109.31 129.881 109.008 129.881 108.526 130.075C107.843 130.328 107.263 130.801 106.879 131.42C105.9 132.96 105.627 135.773 106.67 138.399C107.156 139.637 107.916 140.748 108.893 141.65C109.694 142.388 110.616 142.982 111.62 143.406C112.561 143.778 113.541 144.045 114.54 144.204Z" fill="#263238"/>
<path d="M131.31 144.823C131.13 142.617 131.072 140.402 131.137 138.19C131.081 135.979 131.148 133.767 131.339 131.564C131.519 133.768 131.576 135.98 131.511 138.19C131.572 140.403 131.504 142.618 131.31 144.823Z" fill="#263238"/>
<path d="M104.922 129.931C105.001 128.327 105.167 126.514 105.167 126.514C105.167 126.514 109.138 126.075 109.375 121.975C109.613 117.874 109.375 108.414 109.375 108.414L102.181 104.73L94.1956 111.011L95.4258 131.514L102.749 131.982C103.309 131.997 103.852 131.79 104.26 131.406C104.667 131.021 104.905 130.491 104.922 129.931Z" fill="#FFBE9D"/>
<path d="M105.634 118.73C105.634 118.73 105.634 118.809 105.569 118.903C105.516 118.97 105.447 119.024 105.368 119.059C105.289 119.094 105.202 119.11 105.116 119.104C104.656 119.104 104.21 118.572 104.052 117.953C103.976 117.653 103.976 117.339 104.052 117.039C104.066 116.908 104.113 116.783 104.189 116.675C104.264 116.567 104.365 116.48 104.483 116.421C104.58 116.381 104.689 116.381 104.785 116.421C104.857 116.456 104.915 116.514 104.951 116.586C105.001 116.708 104.951 116.787 104.951 116.78C104.951 116.773 104.951 116.708 104.879 116.636C104.841 116.585 104.786 116.549 104.724 116.536C104.661 116.523 104.596 116.533 104.541 116.564C104.452 116.618 104.379 116.693 104.328 116.782C104.276 116.871 104.248 116.972 104.246 117.075C104.185 117.343 104.185 117.621 104.246 117.888C104.39 118.449 104.778 118.903 105.123 118.946C105.191 118.955 105.26 118.95 105.325 118.931C105.391 118.913 105.452 118.881 105.505 118.838C105.591 118.78 105.62 118.723 105.634 118.73Z" fill="#EB996E"/>
<path d="M111.843 106.198C111.289 104.313 109.282 103.378 107.454 102.86C104.67 102.069 101.663 101.723 98.9437 102.723C96.2244 103.723 92.9583 105.479 92.9583 108.478C91.354 108.349 90.4331 109.752 89.8001 111.493C89.3953 112.553 89.1528 113.669 89.0807 114.802C88.8792 118.73 87.7785 124.154 85.2318 127.032C83.793 128.636 81.8003 129.744 80.9802 131.744C80.2607 133.478 80.6348 135.535 79.9658 137.291C79.3687 138.837 78.0522 139.938 77.0882 141.283C76.106 142.81 75.5281 144.56 75.4085 146.371C75.289 148.182 75.6318 149.994 76.4047 151.636C77.1832 153.236 78.2793 154.66 79.6262 155.823C80.9731 156.985 82.5426 157.862 84.2391 158.398C87.5994 159.42 91.1829 159.455 94.5625 158.499C97.099 157.892 99.4651 156.719 101.483 155.067C103.548 153.381 104.966 151.032 105.498 148.42C106.008 145.485 105.188 142.499 104.577 139.578C102.663 130.348 103.21 129.866 105.627 121.298C105.685 121.147 105.713 120.989 105.757 120.838C105.8 120.687 105.821 120.615 105.85 120.5C105.919 120.161 105.955 119.817 105.958 119.471C105.605 119.602 105.222 119.63 104.853 119.551C104.485 119.472 104.147 119.29 103.879 119.025C103.61 118.743 103.423 118.393 103.337 118.013C103.25 117.633 103.269 117.237 103.39 116.867C103.559 116.462 103.812 116.097 104.132 115.796C104.452 115.494 104.831 115.264 105.246 115.119C106.044 114.788 106.9 114.615 107.685 114.248C109.346 113.457 110.497 111.817 111.282 110.097C111.926 108.905 112.125 107.523 111.843 106.198Z" fill="#263238"/>
<path d="M105.922 118.924C106.074 119.149 106.2 119.39 106.296 119.644C106.512 120.097 106.8 120.737 107.116 121.478L107.174 121.615H107.023L106.303 121.68C105.807 121.68 105.39 121.773 104.9 121.766C104.858 121.756 104.818 121.736 104.786 121.707C104.753 121.678 104.728 121.642 104.713 121.601C104.692 121.535 104.692 121.465 104.713 121.399C104.73 121.302 104.752 121.206 104.778 121.111L104.908 120.601C104.973 120.26 105.074 119.927 105.21 119.608C105.196 119.955 105.146 120.3 105.059 120.637L104.958 121.147C104.922 121.32 104.857 121.586 104.958 121.565C105.318 121.565 105.828 121.485 106.303 121.457L107.023 121.392L106.929 121.55C106.62 120.831 106.361 120.154 106.21 119.687C106.077 119.448 105.98 119.191 105.922 118.924Z" fill="#4CAF4F"/>
<path d="M81.2895 179.477L113.195 178.505L127.08 232.705L124.526 294.877H107.656L109.72 234.029L97.3826 196.296L99.2818 297.287L82.2319 297.538L80.4406 202.613C80.3615 199.972 79.4982 194.023 79.8219 191.404L81.2895 179.477Z" fill="#263238"/>
<path d="M101.627 197.066C101.105 197.099 100.581 197.068 100.066 196.973C99.102 196.858 97.7855 196.656 96.3395 196.368C94.8935 196.081 93.5985 195.75 92.6633 195.484C92.1634 195.374 91.6797 195.2 91.2245 194.966C91.2245 194.858 93.5697 195.419 96.4474 196.002C99.325 196.584 101.641 196.958 101.627 197.066Z" fill="#455A64"/>
<path d="M124.353 291.467C124.353 291.567 120.533 291.654 115.821 291.654C111.109 291.654 107.282 291.567 107.282 291.467C107.282 291.366 111.102 291.28 115.821 291.28C120.54 291.28 124.353 291.359 124.353 291.467Z" fill="#455A64"/>
<path d="M99.1308 294.661C99.1308 294.769 95.4186 294.848 90.8432 294.848C86.2678 294.848 82.5628 294.769 82.5628 294.661C82.5628 294.553 86.275 294.474 90.8432 294.474C95.4114 294.474 99.1308 294.56 99.1308 294.661Z" fill="#455A64"/>
<path d="M96.9294 294.402C96.8287 294.402 96.3826 272.338 95.9294 245.123C95.4762 217.907 95.21 195.829 95.3035 195.829C95.397 195.829 95.8575 217.886 96.3035 245.115C96.7495 272.345 97.0373 294.402 96.9294 294.402Z" fill="#455A64"/>
<path d="M122.087 291.467C122.079 291.368 122.079 291.27 122.087 291.172V290.308C122.087 289.531 122.145 288.416 122.188 286.999C122.288 284.121 122.432 279.942 122.612 274.819C123.001 264.518 123.547 250.316 124.145 234.641C124.145 234.49 124.145 234.346 124.145 234.216V234.267C120.368 219.159 116.95 205.447 114.468 195.527L111.591 183.793C111.26 182.419 111.008 181.347 110.828 180.599C110.742 180.246 110.684 179.973 110.634 179.764C110.606 179.671 110.589 179.574 110.584 179.477C110.621 179.567 110.65 179.661 110.67 179.757C110.728 179.959 110.8 180.232 110.9 180.577C111.094 181.297 111.375 182.39 111.735 183.757C112.454 186.534 113.469 190.534 114.735 195.462C117.238 205.375 120.691 219.051 124.519 234.18V234.231C124.519 234.36 124.519 234.511 124.519 234.655C123.878 250.331 123.296 264.525 122.871 274.827C122.648 279.956 122.461 284.107 122.332 286.999C122.26 288.438 122.202 289.531 122.166 290.308C122.166 290.675 122.123 290.963 122.116 291.172C122.117 291.271 122.107 291.37 122.087 291.467Z" fill="#455A64"/>
<path d="M116.584 232.95C115.372 233.349 114.124 233.626 112.857 233.778C111.303 234.044 109.979 234.231 109.382 234.26V234.116C109.577 234.173 109.677 234.209 109.677 234.238C109.677 234.267 109.555 234.238 109.354 234.238H108.922L109.354 234.108C109.915 233.943 111.238 233.67 112.792 233.389C114.039 233.119 115.308 232.972 116.584 232.95Z" fill="#455A64"/>
<path d="M116.289 235.015C115.166 235.066 114.042 235.016 112.929 234.864C111.805 234.841 110.686 234.718 109.584 234.497C111.832 234.313 114.095 234.488 116.289 235.015Z" fill="#455A64"/>
<path opacity="0.2" d="M81.1528 180.62C81.5307 181.106 82.0066 181.506 82.5495 181.795C83.0925 182.083 83.6902 182.254 84.3038 182.297C85.5888 182.449 86.8886 182.425 88.167 182.225C96.4042 181.311 105.131 180.469 113.195 178.505C102.757 179.088 91.7281 178.894 81.2895 179.477L81.1816 180.369" fill="black"/>
<g opacity="0.2">
<path d="M91.9079 195.332L97.7927 218.166L97.3826 196.296L91.9079 195.332Z" fill="black"/>
</g>
</svg>
